<?xml version="1.0" standalone="no"?>
<!DOCTYPE svg PUBLIC "-//W3C//DTD SVG 20010904//EN"
 "http://www.w3.org/TR/2001/REC-SVG-20010904/DTD/svg10.dtd">
<svg version="1.0" xmlns="http://www.w3.org/2000/svg"
 width="512.000000pt" height="512.000000pt" viewBox="0 0 512.000000 512.000000"
 preserveAspectRatio="xMidYMid meet">
<metadata>
Created by potrace 1.14, written by Peter Selinger 2001-2017
</metadata>
<g transform="translate(0.000000,512.000000) scale(0.100000,-0.100000)"
fill="#000000" stroke="none">
<path d="M1482 4634 c-199 -46 -343 -185 -398 -381 l-16 -59 -217 0 c-237 -1
-285 -9 -367 -65 -47 -32 -107 -96 -128 -136 -23 -45 -42 -133 -41 -193 l0
-55 368 -1 c202 0 370 -4 374 -8 4 -4 8 -98 9 -209 1 -176 9 -321 19 -337 2
-3 6 -25 10 -49 17 -114 106 -336 187 -466 37 -59 177 -235 187 -235 3 0 14 9
24 20 9 11 21 20 26 20 4 0 32 -22 61 -49 l54 -48 -23 -29 -22 -28 23 -18
c117 -93 292 -187 434 -233 l81 -27 -1 -216 -1 -217 -45 -6 c-25 -4 -72 -10
-105 -14 -80 -9 -336 -60 -454 -91 -449 -116 -736 -279 -848 -484 -20 -36 -38
-67 -39 -69 -2 -2 -145 -3 -318 -3 l-316 0 0 -73 c0 -50 4 -74 12 -77 7 -2
147 -3 310 -3 l297 1 6 -35 c23 -121 139 -223 305 -268 59 -16 128 -18 735
-18 l670 0 0 35 0 35 75 0 75 0 0 -35 0 -35 75 0 75 0 -1 36 -1 37 77 1 77 1
-3 -26 c-6 -57 -48 -54 684 -51 l677 3 78 27 c124 43 190 93 241 179 13 24 27
59 31 79 l7 36 309 -1 309 -1 0 77 0 76 -142 0 c-79 1 -222 1 -319 1 l-176 1
-19 42 c-64 142 -239 284 -476 384 -122 52 -381 133 -478 150 -14 3 -41 9 -60
14 -48 12 -129 27 -370 65 -35 6 -108 14 -175 20 -30 3 -80 7 -111 10 -31 3
-59 7 -63 9 -5 3 -6 177 -2 349 1 21 6 27 24 27 29 1 215 51 292 80 76 28 223
103 298 153 179 119 360 307 466 487 l33 55 106 34 c128 41 286 121 389 197
94 70 225 202 278 280 22 32 42 61 46 64 28 23 169 336 169 375 0 7 -407 10
-1265 10 l-1265 0 -9 25 c-5 14 -44 124 -86 245 -96 274 -139 365 -216 448
-84 92 -151 132 -274 162 -51 13 -177 12 -233 -1z m883 -2628 c33 -3 94 -5
135 -5 l76 -1 1 -178 0 -177 -66 -1 c-36 -1 -103 -4 -148 -7 -74 -6 -83 -5
-84 11 -1 22 -1 332 0 354 1 10 7 15 14 13 6 -2 39 -6 72 -9z"/>
</g>
</svg>
