<svg width="61" height="61" viewBox="0 0 61 61" fill="none" xmlns="http://www.w3.org/2000/svg">
<path d="M60.5 30.5C60.5 47.0685 47.0685 60.5 30.5 60.5C13.9315 60.5 0.5 47.0685 0.5 30.5C0.5 13.9315 13.9315 0.5 30.5 0.5C47.0685 0.5 60.5 13.9315 60.5 30.5Z" stroke="#737373"/>
<path fill-rule="evenodd" clip-rule="evenodd" d="M24.6102 16.6102C25.4238 15.7966 26.7429 15.7966 27.5565 16.6102L40.0565 29.1102C40.8701 29.9238 40.8701 31.2429 40.0565 32.0565L27.5565 44.5565C26.7429 45.3701 25.4238 45.3701 24.6102 44.5565C23.7966 43.7429 23.7966 42.4238 24.6102 41.6102L35.6371 30.5833L24.6102 19.5565C23.7966 18.7429 23.7966 17.4238 24.6102 16.6102Z" fill="#3B63AB"/>
</svg>
