<svg width="18" height="22" viewBox="0 0 18 22" fill="none" xmlns="http://www.w3.org/2000/svg">
<path fill-rule="evenodd" clip-rule="evenodd" d="M5 9C5 6.79086 6.79086 5 9 5C11.2091 5 13 6.79086 13 9C13 11.2091 11.2091 13 9 13C6.79086 13 5 11.2091 5 9ZM9 7C7.89543 7 7 7.89543 7 9C7 10.1046 7.89543 11 9 11C10.1046 11 11 10.1046 11 9C11 7.89543 10.1046 7 9 7Z" fill="black"/>
<path fill-rule="evenodd" clip-rule="evenodd" d="M9 0C4.02944 0 0 4.02944 0 9C0 11.5262 1.14683 13.7402 2.70772 15.767C4.01205 17.4607 5.68147 19.1156 7.34917 20.7689C7.66463 21.0816 7.98004 21.3942 8.29289 21.7071C8.60575 22.02 9 22 9 22C9 22 9.39425 22.02 9.70711 21.7071C10.02 21.3943 10.3354 21.0816 10.6508 20.7689C12.3185 19.1156 13.988 17.4607 15.2923 15.767C16.8532 13.7402 18 11.5262 18 9C18 4.02944 13.9706 0 9 0ZM2 9C2 5.13401 5.13401 2 9 2C12.866 2 16 5.13401 16 9C16 10.8921 15.1468 12.678 13.7077 14.5467C12.4926 16.1245 9 19.5 9 19.5C9 19.5 5.50741 16.1245 4.29228 14.5467C2.85317 12.678 2 10.8921 2 9ZM5 9C5 6.79086 6.79086 5 9 5C11.2091 5 13 6.79086 13 9C13 11.2091 11.2091 13 9 13C6.79086 13 5 11.2091 5 9ZM9 7C7.89543 7 7 7.89543 7 9C7 10.1046 7.89543 11 9 11C10.1046 11 11 10.1046 11 9C11 7.89543 10.1046 7 9 7Z" fill="black"/>
</svg>
