<svg width="500" height="357" viewBox="0 0 500 357" fill="none" xmlns="http://www.w3.org/2000/svg">
<path d="M126 187.421C126 187.421 209.407 184.636 237.021 157.021C264.636 129.407 267.421 46 267.421 46C267.421 46 270.207 129.407 297.821 157.021C325.436 184.636 408.843 187.421 408.843 187.421C408.843 187.421 325.436 190.207 297.821 217.821C270.207 245.436 267.421 328.843 267.421 328.843C267.421 328.843 264.636 245.436 237.021 217.821C209.407 190.207 126 187.421 126 187.421Z" stroke="white" stroke-width="5" stroke-linejoin="round"/>
<path d="M58 47.3553C58 47.3553 78.8518 46.6589 85.7553 39.7553C92.6589 32.8518 93.3553 12 93.3553 12C93.3553 12 94.0518 32.8518 100.955 39.7553C107.859 46.6589 128.711 47.3553 128.711 47.3553C128.711 47.3553 107.859 48.0518 100.955 54.9554C94.0518 61.8589 93.3553 82.7107 93.3553 82.7107C93.3553 82.7107 92.6589 61.8589 85.7553 54.9554C78.8518 48.0518 58 47.3553 58 47.3553Z" stroke="white" stroke-linejoin="round"/>
<path d="M393 297.355C393 297.355 413.852 296.659 420.755 289.755C427.659 282.852 428.355 262 428.355 262C428.355 262 429.052 282.852 435.955 289.755C442.859 296.659 463.711 297.355 463.711 297.355C463.711 297.355 442.859 298.052 435.955 304.955C429.052 311.859 428.355 332.711 428.355 332.711C428.355 332.711 427.659 311.859 420.755 304.955C413.852 298.052 393 297.355 393 297.355Z" stroke="white" stroke-linejoin="round"/>
<path d="M1.99994 283.711C1.99994 283.711 43.7035 282.318 57.5106 268.511C71.3177 254.704 72.7106 213 72.7106 213C72.7106 213 74.1035 254.704 87.9107 268.511C101.718 282.318 143.421 283.711 143.421 283.711C143.421 283.711 101.718 285.104 87.9107 298.911C74.1035 312.718 72.7106 354.421 72.7106 354.421C72.7106 354.421 71.3177 312.718 57.5106 298.911C43.7035 285.104 1.99994 283.711 1.99994 283.711Z" stroke="white" stroke-width="4" stroke-linejoin="round"/>
<path d="M357 72.7107C357 72.7107 398.704 71.3178 412.511 57.5107C426.318 43.7035 427.711 2.00002 427.711 2.00002C427.711 2.00002 429.104 43.7035 442.911 57.5107C456.718 71.3178 498.421 72.7107 498.421 72.7107C498.421 72.7107 456.718 74.1036 442.911 87.9107C429.104 101.718 427.711 143.421 427.711 143.421C427.711 143.421 426.318 101.718 412.511 87.9107C398.704 74.1036 357 72.7107 357 72.7107Z" stroke="white" stroke-width="3" stroke-linejoin="round"/>
</svg>
